<?xml version="1.0" encoding="UTF-8" standalone="no"?>
<svg
   xmlns:dc="http://purl.org/dc/elements/1.1/"
   xmlns:cc="http://creativecommons.org/ns#"
   xmlns:rdf="http://www.w3.org/1999/02/22-rdf-syntax-ns#"
   xmlns:svg="http://www.w3.org/2000/svg"
   xmlns="http://www.w3.org/2000/svg"
   viewBox="0 0 125 125"
   height="125"
   width="125"
   xml:space="preserve"
   version="1.1"
   id="svg3437"><metadata
     id="metadata3443"><rdf:RDF><cc:Work
         rdf:about=""><dc:format>image/svg+xml</dc:format><dc:type
           rdf:resource="http://purl.org/dc/dcmitype/StillImage" /><dc:title></dc:title></cc:Work></rdf:RDF></metadata><defs
     id="defs3441"><clipPath
       id="clipPath3451"
       clipPathUnits="userSpaceOnUse"><path
         id="path3453"
         d="M 0,100 100,100 100,0 0,0 0,100 Z" /></clipPath><linearGradient
       id="linearGradient3471"
       spreadMethod="pad"
       gradientTransform="matrix(0,-25.720001,25.720001,0,50.326996,66.340004)"
       gradientUnits="userSpaceOnUse"
       y2="0"
       x2="1"
       y1="0"
       x1="0"><stop
         id="stop3473"
         offset="0"
         style="stop-opacity:1;stop-color:#fcc810" /><stop
         id="stop3475"
         offset="0.19"
         style="stop-opacity:1;stop-color:#fbc411" /><stop
         id="stop3477"
         offset="0.39"
         style="stop-opacity:1;stop-color:#f9b613" /><stop
         id="stop3479"
         offset="0.6"
         style="stop-opacity:1;stop-color:#f6a116" /><stop
         id="stop3481"
         offset="0.82"
         style="stop-opacity:1;stop-color:#f1821b" /><stop
         id="stop3483"
         offset="1"
         style="stop-opacity:1;stop-color:#ec6320" /></linearGradient><linearGradient
       id="linearGradient3499"
       spreadMethod="pad"
       gradientTransform="matrix(1.8699991,-3.25,3.25,1.8699991,47.200104,78.580063)"
       gradientUnits="userSpaceOnUse"
       y2="0"
       x2="1"
       y1="0"
       x1="0"><stop
         id="stop3501"
         offset="0"
         style="stop-opacity:1;stop-color:#fcc810" /><stop
         id="stop3503"
         offset="0.02"
         style="stop-opacity:1;stop-color:#fbc511" /><stop
         id="stop3505"
         offset="0.24"
         style="stop-opacity:1;stop-color:#ee971c" /><stop
         id="stop3507"
         offset="0.46"
         style="stop-opacity:1;stop-color:#e37425" /><stop
         id="stop3509"
         offset="0.67"
         style="stop-opacity:1;stop-color:#dc5a2c" /><stop
         id="stop3511"
         offset="0.85"
         style="stop-opacity:1;stop-color:#d84a30" /><stop
         id="stop3513"
         offset="1"
         style="stop-opacity:1;stop-color:#d64531" /></linearGradient><linearGradient
       id="linearGradient3529"
       spreadMethod="pad"
       gradientTransform="matrix(4.5300026,-7.8399997,7.8399997,4.5300026,55.002171,73.705475)"
       gradientUnits="userSpaceOnUse"
       y2="0"
       x2="1"
       y1="0"
       x1="0"><stop
         id="stop3531"
         offset="0"
         style="stop-opacity:1;stop-color:#fcc810" /><stop
         id="stop3533"
         offset="0.02"
         style="stop-opacity:1;stop-color:#fbc511" /><stop
         id="stop3535"
         offset="0.24"
         style="stop-opacity:1;stop-color:#ee971c" /><stop
         id="stop3537"
         offset="0.46"
         style="stop-opacity:1;stop-color:#e37425" /><stop
         id="stop3539"
         offset="0.67"
         style="stop-opacity:1;stop-color:#dc5a2c" /><stop
         id="stop3541"
         offset="0.85"
         style="stop-opacity:1;stop-color:#d84a30" /><stop
         id="stop3543"
         offset="1"
         style="stop-opacity:1;stop-color:#d64531" /></linearGradient><linearGradient
       id="linearGradient3559"
       spreadMethod="pad"
       gradientTransform="matrix(49.909996,0,0,49.909996,24.790001,46.779999)"
       gradientUnits="userSpaceOnUse"
       y2="0"
       x2="1"
       y1="0"
       x1="0"><stop
         id="stop3561"
         offset="0"
         style="stop-opacity:1;stop-color:#e95320" /><stop
         id="stop3563"
         offset="0.53"
         style="stop-opacity:1;stop-color:#db492c" /><stop
         id="stop3565"
         offset="1"
         style="stop-opacity:1;stop-color:#d64531" /></linearGradient><clipPath
       id="clipPath3573"
       clipPathUnits="userSpaceOnUse"><path
         id="path3575"
         d="M 0,100 100,100 100,0 0,0 0,100 Z" /></clipPath><linearGradient
       id="linearGradient3597"
       spreadMethod="pad"
       gradientTransform="matrix(70.693138,-70.693138,70.693138,70.693138,14.644661,85.355339)"
       gradientUnits="userSpaceOnUse"
       y2="0"
       x2="1"
       y1="0"
       x1="0"><stop
         id="stop3599"
         offset="0"
         style="stop-opacity:1;stop-color:#f6a122" /><stop
         id="stop3601"
         offset="1"
         style="stop-opacity:1;stop-color:#ea543a" /></linearGradient><linearGradient
       id="linearGradient3617"
       spreadMethod="pad"
       gradientTransform="matrix(0,-24.02,24.02,0,49.019802,84.589996)"
       gradientUnits="userSpaceOnUse"
       y2="0"
       x2="1"
       y1="0"
       x1="0"><stop
         id="stop3619"
         offset="0"
         style="stop-opacity:1;stop-color:#fcc810" /><stop
         id="stop3621"
         offset="0.02"
         style="stop-opacity:1;stop-color:#fbc511" /><stop
         id="stop3623"
         offset="0.24"
         style="stop-opacity:1;stop-color:#ee971c" /><stop
         id="stop3625"
         offset="0.46"
         style="stop-opacity:1;stop-color:#e37425" /><stop
         id="stop3627"
         offset="0.67"
         style="stop-opacity:1;stop-color:#dc5a2c" /><stop
         id="stop3629"
         offset="0.85"
         style="stop-opacity:1;stop-color:#d84a30" /><stop
         id="stop3631"
         offset="1"
         style="stop-opacity:1;stop-color:#d64531" /></linearGradient><clipPath
       id="clipPath3639"
       clipPathUnits="userSpaceOnUse"><path
         id="path3641"
         d="M 0,100 100,100 100,0 0,0 0,100 Z" /></clipPath></defs><g
     transform="matrix(1.25,0,0,-1.25,0,125)"
     id="g3445"><g
       id="g3447"><g
         clip-path="url(#clipPath3451)"
         id="g3449"><g
           transform="translate(50.1299,91.1602)"
           id="g3455"><path
             id="path3457"
             style="fill:#ffffff;fill-opacity:1;fill-rule:nonzero;stroke:none"
             d="m 0,0 c -22.881,0 -41.43,-18.549 -41.43,-41.43 0,-22.882 18.549,-41.43 41.43,-41.43 22.881,0 41.43,18.548 41.43,41.43 l 0,0.01 C 41.397,-18.554 22.866,-0.028 0,0" /></g></g></g><g
       id="g3459"><g
         id="g3461"><g
           id="g3467"><g
             id="g3469"><path
               id="path3485"
               style="fill:url(#linearGradient3471);stroke:none"
               d="m 48.38,59.09 c -4.73,-4.77 -5,-7.83 -5,-7.83 l 0,0 c 0,0 -1.561,-5.991 2.95,-9.2 l 0,0 c 2.713,-1.966 6.41,-1.855 9,0.27 l 0,0 c 4.47,3.39 0.76,9.46 0.76,9.46 l 0,0 c 0.58,-4.2 -0.51,-4.39 -1.54,-4.23 l 0,0 c -2.9,0.351 -1.37,3.36 -0.67,4 l 0,0 c 2.61,2.42 0.94,6.25 0.94,6.34 l 0,0 c -0.58,-2.32 -2.05,-3.3 -2.05,-3.21 l 0,0 c 2.06,6.919 -2.23,10 -3.39,11.65 l 0,0 c 1.14,-4.64 -0.6,-6.84 -1,-7.25" /></g></g></g></g><g
       id="g3487"><g
         id="g3489"><g
           id="g3495"><g
             id="g3497"><path
               id="path3515"
               style="fill:url(#linearGradient3499);stroke:none"
               d="m 46.8,74.11 c 3.62,1.29 2.63,5.76 2.63,5.76 l 0,0 C 46.31,77.06 46.8,74.11 46.8,74.11" /></g></g></g></g><g
       id="g3517"><g
         id="g3519"><g
           id="g3525"><g
             id="g3527"><path
               id="path3545"
               style="fill:url(#linearGradient3529);stroke:none"
               d="M 55.679,72.14 C 53.941,68.971 55.1,63.75 55.1,63.75 l 0,0 c 2.08,0.221 3.615,2.043 3.48,4.13 l 0,0 c 0.058,2.764 0.281,5.522 0.67,8.26 l 0,0 c 0,0 -1.83,-0.83 -3.571,-4" /></g></g></g></g><g
       id="g3547"><g
         id="g3549"><g
           id="g3555"><g
             id="g3557"><path
               id="path3567"
               style="fill:url(#linearGradient3559);stroke:none"
               d="m 24.79,40.89 31,-11.699 18.91,24.469 -19.08,6.9 c 0,0 8.269,-9.49 3.72,-17.079 l 0,0 C 55.201,36.55 46.71,39.06 46.71,39.06 l 0,0 c 0,0 -9,2.31 -6,13.739 l 0,0 c 0.77,2.193 1.895,4.244 3.33,6.071 l 0,0 c 0.85,1 3.3,4.081 3.3,4.081 l 0,0 L 43.9,64.37 24.79,40.89 Z" /></g></g></g></g><g
       id="g3569"><g
         clip-path="url(#clipPath3573)"
         id="g3571"><g
           transform="translate(27.2002,38.2998)"
           id="g3577"><path
             id="path3579"
             style="fill:#c34334;fill-opacity:1;fill-rule:nonzero;stroke:none"
             d="M 0,0 28.93,-11.069 46.609,11.61 c 0,0 2.5,0.18 0.71,-2.14 C 45.53,7.15 29.38,-13.75 29.38,-13.75 L -1.78,-2.3 c 0,0 -0.42,1.77 1.78,2.3" /></g><g
           transform="translate(26.6699,31.5195)"
           id="g3581"><path
             id="path3583"
             style="fill:#bf3e27;fill-opacity:1;fill-rule:nonzero;stroke:none"
             d="m 0,0 30.53,-11.34 18.3,23.931 c 0,0 0.09,2.05 -1.61,1.34 C 45.26,11.16 30.17,-8.52 30.17,-8.52 L 1.17,2.19 C 0.342,2.095 -0.252,1.346 -0.157,0.518 -0.136,0.337 -0.083,0.162 0,0" /></g></g></g><g
       id="g3585"><g
         id="g3587"><g
           id="g3593"><g
             id="g3595"><path
               id="path3603"
               style="fill:url(#linearGradient3597);stroke:none"
               d="M 50,100 C 22.386,100 0,77.614 0,50 l 0,0 C 0,22.386 22.386,0 50,0 l 0,0 c 27.601,0.033 49.967,22.399 50,50 l 0,0 c 0,27.614 -22.386,50 -50,50 z M 8.57,50 c 0,22.881 18.549,41.43 41.43,41.43 l 0,0 C 72.87,91.402 91.402,72.869 91.43,50 l 0,0 C 91.43,27.119 72.881,8.571 50,8.571 l 0,0 C 27.119,8.571 8.57,27.119 8.57,50" /></g></g></g></g><g
       id="g3605"><g
         id="g3607"><g
           id="g3613"><g
             id="g3615"><path
               id="path3633"
               style="fill:url(#linearGradient3617);stroke:none"
               d="m 51.52,76.67 c -5.57,-4.31 -6.34,-9.26 -6.34,-9.26 l 0,0 C 44.26,69.38 45,72.8 45,72.8 l 0,0 c 0,0 -2.38,-2.29 -2.561,-4.85 l 0,0 c -0.389,-4.4 4.941,-4.999 4.941,-4.999 l 0,0 c 0,0 0.98,1.449 0.89,6.249 l 0,0 c 3.57,-2.559 3.749,-4.459 7.35,-8.63 l 0,0 c -4.459,6.78 -1.61,11.7 -1.34,12.38 l 0,0 c 3.52,7.95 -1.84,10.809 -3.24,11.64 l 0,0 c 3.479,-4.26 0.88,-7.61 0.48,-7.92" /></g></g></g></g><g
       id="g3635"><g
         clip-path="url(#clipPath3639)"
         id="g3637"><g
           transform="translate(77.1396,88.1602)"
           id="g3643"><path
             id="path3645"
             style="fill:#ffffff;fill-opacity:1;fill-rule:nonzero;stroke:none"
             d="M 0,0 C 0.89,0 1.61,-0.721 1.61,-1.61 1.61,-2.5 0.89,-3.22 0,-3.22 c -0.889,0 -1.609,0.72 -1.609,1.61 0,0.889 0.72,1.61 1.609,1.61" /></g><g
           transform="translate(93.21,67.0898)"
           id="g3647"><path
             id="path3649"
             style="fill:#ffffff;fill-opacity:1;fill-rule:nonzero;stroke:none"
             d="m 0,0 c 0.89,0 1.61,-0.721 1.61,-1.61 0,-0.889 -0.72,-1.61 -1.61,-1.61 -0.889,0 -1.61,0.721 -1.61,1.61 C -1.61,-0.721 -0.889,0 0,0" /></g><g
           transform="translate(91.3096,72.0298)"
           id="g3651"><path
             id="path3653"
             style="fill:#ffffff;fill-opacity:1;fill-rule:nonzero;stroke:none"
             d="m 0,0 c 0.89,0 1.61,-0.721 1.61,-1.61 0,-0.889 -0.72,-1.61 -1.61,-1.61 -0.889,0 -1.609,0.721 -1.609,1.61 0,0.889 0.72,1.61 1.609,1.61" /></g><g
           transform="translate(94.9404,61.0098)"
           id="g3655"><path
             id="path3657"
             style="fill:#ffffff;fill-opacity:1;fill-rule:nonzero;stroke:none"
             d="m 0,0 c 0.889,0 1.609,-0.721 1.609,-1.61 0,-0.889 -0.72,-1.61 -1.609,-1.61 -0.89,0 -1.61,0.721 -1.61,1.61 C -1.61,-0.721 -0.89,0 0,0" /></g><g
           transform="translate(81.7305,84.5898)"
           id="g3659"><path
             id="path3661"
             style="fill:#ffffff;fill-opacity:1;fill-rule:nonzero;stroke:none"
             d="m 0,0 c 0.889,0 1.609,-0.721 1.609,-1.61 0,-0.889 -0.72,-1.61 -1.609,-1.61 -0.89,0 -1.61,0.721 -1.61,1.61 C -1.61,-0.721 -0.89,0 0,0" /></g><g
           transform="translate(88.6904,76.6699)"
           id="g3663"><path
             id="path3665"
             style="fill:#ffffff;fill-opacity:1;fill-rule:nonzero;stroke:none"
             d="m 0,0 c 0.889,0 1.609,-0.721 1.609,-1.61 0,-0.889 -0.72,-1.61 -1.609,-1.61 -0.89,0 -1.61,0.721 -1.61,1.61 C -1.61,-0.721 -0.89,0 0,0" /></g><g
           transform="translate(85.4199,80.9502)"
           id="g3667"><path
             id="path3669"
             style="fill:#ffffff;fill-opacity:1;fill-rule:nonzero;stroke:none"
             d="M 0,0 C 0.89,0 1.61,-0.721 1.61,-1.61 1.61,-2.5 0.89,-3.22 0,-3.22 c -0.889,0 -1.61,0.72 -1.61,1.61 C -1.61,-0.721 -0.889,0 0,0" /></g><g
           transform="translate(3.8413,41.999)"
           id="g3671"><path
             id="path3673"
             style="fill:#ffffff;fill-opacity:1;fill-rule:nonzero;stroke:none"
             d="M 0,0 C 0.378,0.805 1.336,1.151 2.142,0.773 2.946,0.396 3.292,-0.563 2.915,-1.368 2.537,-2.173 1.578,-2.52 0.773,-2.142 -0.032,-1.764 -0.378,-0.805 0,0" /></g><g
           transform="translate(16.0752,18.4912)"
           id="g3675"><path
             id="path3677"
             style="fill:#ffffff;fill-opacity:1;fill-rule:nonzero;stroke:none"
             d="M 0,0 C 0.378,0.806 1.337,1.151 2.142,0.773 2.946,0.396 3.292,-0.563 2.915,-1.368 2.537,-2.173 1.578,-2.52 0.773,-2.142 -0.032,-1.764 -0.378,-0.805 0,0" /></g><g
           transform="translate(12.4219,22.3115)"
           id="g3679"><path
             id="path3681"
             style="fill:#ffffff;fill-opacity:1;fill-rule:nonzero;stroke:none"
             d="M 0,0 C 0.378,0.806 1.337,1.151 2.142,0.773 2.946,0.396 3.292,-0.563 2.915,-1.368 2.537,-2.173 1.578,-2.52 0.773,-2.142 -0.032,-1.764 -0.378,-0.805 0,0" /></g><g
           transform="translate(20.8447,14.3467)"
           id="g3683"><path
             id="path3685"
             style="fill:#ffffff;fill-opacity:1;fill-rule:nonzero;stroke:none"
             d="M 0,0 C 0.378,0.805 1.337,1.151 2.142,0.773 2.946,0.396 3.292,-0.563 2.915,-1.368 2.537,-2.174 1.578,-2.52 0.773,-2.142 -0.032,-1.764 -0.378,-0.805 0,0" /></g><g
           transform="translate(5.1274,36.3281)"
           id="g3687"><path
             id="path3689"
             style="fill:#ffffff;fill-opacity:1;fill-rule:nonzero;stroke:none"
             d="M 0,0 C 0.378,0.805 1.337,1.151 2.142,0.773 2.947,0.396 3.293,-0.563 2.915,-1.368 2.537,-2.174 1.578,-2.52 0.773,-2.142 -0.032,-1.764 -0.378,-0.805 0,0" /></g><g
           transform="translate(9.3403,26.6592)"
           id="g3691"><path
             id="path3693"
             style="fill:#ffffff;fill-opacity:1;fill-rule:nonzero;stroke:none"
             d="M 0,0 C 0.377,0.805 1.336,1.151 2.142,0.773 2.946,0.396 3.292,-0.563 2.915,-1.368 2.537,-2.173 1.578,-2.52 0.773,-2.142 -0.032,-1.764 -0.378,-0.805 0,0" /></g><g
           transform="translate(6.8462,31.4414)"
           id="g3695"><path
             id="path3697"
             style="fill:#ffffff;fill-opacity:1;fill-rule:nonzero;stroke:none"
             d="M 0,0 C 0.377,0.805 1.336,1.15 2.142,0.772 2.946,0.395 3.292,-0.563 2.915,-1.369 2.537,-2.174 1.578,-2.52 0.773,-2.142 -0.032,-1.764 -0.378,-0.806 0,0" /></g></g></g></g></svg>