<?xml version="1.0" encoding="UTF-8"?>
<svg xmlns="http://www.w3.org/2000/svg" xmlns:xlink="http://www.w3.org/1999/xlink" viewBox="0 0 32 32" version="1.1" width="25px" height="25px">
<g id="surface1">
<path style=" " d="M 7.03125 4 L 7.03125 7 L 6.0625 7 C 4.957031 7 4.03125 7.894531 4.03125 9 L 4 9.9375 L 4 9.96875 C 4 11.074219 4.925781 12 6.03125 12 L 7 12 L 7.03125 28 L 9.03125 28 L 9 12 L 10 12 C 11.097656 12 11.984375 11.09375 12 10 C 12 9.988281 12 9.980469 12 9.96875 L 12.03125 9.03125 L 12.03125 9 C 12.03125 7.894531 11.105469 7 10 7 L 9.03125 7 L 9.03125 4 Z M 15.03125 4 L 15.03125 19 L 14.0625 19 C 12.957031 19 12.03125 19.894531 12.03125 21 L 12 21.9375 L 12 21.96875 C 12 23.074219 12.925781 24 14.03125 24 L 15 24 L 15.03125 28 L 17.03125 27.96875 L 17 24 L 18 24 C 19.097656 24 19.984375 23.09375 20 22 C 20 21.988281 20 21.980469 20 21.96875 L 20.03125 21.03125 L 20.03125 21 C 20.03125 19.894531 19.105469 19 18 19 L 17.03125 19 L 17.03125 4 Z M 23.03125 4 L 23.03125 11 L 22.0625 11 C 20.957031 11 20.03125 11.894531 20.03125 13 L 20 13.9375 L 20 13.96875 C 20 15.074219 20.925781 16 22.03125 16 L 23 16 L 23.03125 28 L 25.03125 28 L 25 16 L 26 16 C 27.097656 16 27.984375 15.09375 28 14 C 28 13.988281 28 13.980469 28 13.96875 L 28.03125 13.03125 L 28.03125 13 C 28.03125 11.894531 27.105469 11 26 11 L 25.03125 11 L 25.03125 4 Z M 6.03125 9 C 6.03125 8.976563 6.039063 9 6.0625 9 L 10 9 C 10.023438 9 10.03125 8.976563 10.03125 9 L 10 9.9375 L 10 9.96875 C 10 9.992188 10.023438 10 10 10 L 6.03125 10 C 6.019531 10 6.003906 10.003906 6 10 L 6 9.96875 L 6.03125 9.03125 Z M 22.03125 13 C 22.03125 12.976563 22.039063 13 22.0625 13 L 26 13 C 26.023438 13 26.03125 12.976563 26.03125 13 L 26 13.9375 L 26 13.96875 C 26 13.992188 26.023438 14 26 14 L 22.03125 14 C 22.019531 14 22.003906 14.003906 22 14 L 22 13.96875 L 22.03125 13.03125 Z M 14.03125 21 C 14.03125 20.976563 14.039063 21 14.0625 21 L 18 21 C 18.023438 21 18.03125 20.976563 18.03125 21 L 18 21.9375 L 18 21.96875 C 18 21.992188 18.023438 22 18 22 L 14.03125 22 C 14.019531 22 14.003906 22.003906 14 22 L 14 21.96875 L 14.03125 21.03125 Z "/>
</g>
</svg>
